# xmcd
#
# Track frame offsets:
#  150
#  11317
#  21790
#  32442
#  46190
#  59075
#  68900
#  79539
#  90164
#  102194
#  111704
#  123250
#  134996
#  146016
#  156152
#  166242
#  174935
#  186529
#  198210
#  210478
#  220786
#  229490
#  240983
#  250416
#  261455
#  272144
#  283679
#  292606
#  303163
#  314578
#  326328
#  337586
#
# Disc length: 4662 seconds
#
# Revision: 0
# Processed by: cddbd v1.5.2PL0 Copyright (c) Steve Scherf et al.
# Submitted via: AltoMP3_Maker 3.0
#
DISCID=c8123420
DTITLE=Various Artist - MGM Hillbilly, Vol. 4
DYEAR=1900
DGENRE=
TTITLE0=Randy Atcher - Them Soft Shoulders and Dangerous Curves
TTITLE1=Charlie Carson - I'll Sure Come a-Runnin'
TTITLE2=Ted West - Wrong Side of the Road
TTITLE3=Braxton Shooford - Rockin' Chair Daddy
TTITLE4=Bud Hobbs - Goose Rock
TTITLE5=Audrey Williams - Ain't Nothing gonna Be Alright No How
TTITLE6=Les Willard - Double Up and Catch Up
TTITLE7=Rusty Gabbard - I'm Lookin' for Somebody
TTITLE8=Billy Jack Wills - Bottle Baby Boogie
TTITLE9=Sheb Wooley - Tom the Boogie Woogie Tomcat
TTITLE10=George McCormick - Hi there Sweet Thing
TTITLE11=Sam Nichols - Red Hair and Green Eyes
TTITLE12=Joe (Cannonball) Lewis - I'd Be Sweet Talkin' You
TTITLE13=Tom Anderson - No More Blues from You
TTITLE14=Arthur Smith - Your Way
TTITLE15=Jack Turner - Shake My Hand
TTITLE16=Skeets Yaney - Train Track Shuffle
TTITLE17=Bob Wills - Steamboat Stomp
TTITLE18=Andrews Bros - That's Why We Drifted Apart
TTITLE19=Bud Hobbs - You're Just What the Dr. Ordered
TTITLE20=Donn Reynolds - All Alone
TTITLE21=Randy Atcher - Flying High
TTITLE22=Billy Jack Wills - She's the Quarter Horse Type (of a Gal)
TTITLE23=Ray Haney - Rosie's TV Song
TTITLE24=Audrey Williams - Livin' It Up and Havin' a Ball
TTITLE25=Sam Nichols - Ain't That Too Bad
TTITLE26=Sheb Wooley - Love Is a Fever
TTITLE27=Tom Anderson - My Heart's in a Whirl
TTITLE28=Joe (Cannonball) Lewis - (Down the) Road to Love
TTITLE29=Arthur Smith - RSVP Uncle Sam
TTITLE30=Rusty Gabbard - I Gotta Get My Sugar
TTITLE31=Cecil Campbell - Go Man Go
EXTD=
EXTT0=
EXTT1=
EXTT2=
EXTT3=
EXTT4=
EXTT5=
EXTT6=
EXTT7=
EXTT8=
EXTT9=
EXTT10=
EXTT11=
EXTT12=
EXTT13=
EXTT14=
EXTT15=
EXTT16=
EXTT17=
EXTT18=
EXTT19=
EXTT20=
EXTT21=
EXTT22=
EXTT23=
EXTT24=
EXTT25=
EXTT26=
EXTT27=
EXTT28=
EXTT29=
EXTT30=
EXTT31=
PLAYORDER=
